<?xml version="1.0" encoding="utf-8"?>
<!-- Generator: Adobe Illustrator 24.3.0, SVG Export Plug-In . SVG Version: 6.00 Build 0)  -->
<svg version="1.1" id="Layer_1" xmlns="http://www.w3.org/2000/svg" xmlns:xlink="http://www.w3.org/1999/xlink" x="0px" y="0px"
	 viewBox="0 0 792 612" style="enable-background:new 0 0 792 612;" xml:space="preserve">
<style type="text/css">
	.st0{fill:none;stroke:#000000;stroke-linecap:round;stroke-miterlimit:10;}
</style>
<g>
	<path class="st0" d="M649.8,306L517.9,509.9"/>
	<path class="st0" d="M517.9,509.9l-208-36.1"/>
	<path class="st0" d="M309.9,473.7l-21.2-154.7"/>
	<path class="st0" d="M289,319.1l99.2-13.1"/>
	<path class="st0" d="M388.1,306l-30.1,95.5"/>
	<path class="st0" d="M358.1,401.5l-148.6-47.6"/>
	<path class="st0" d="M209.4,353.9l0.5-211.2"/>
	<path class="st0" d="M209.9,142.7l223.7-94.5"/>
	<path class="st0" d="M433.7,48.2l177.9,165.1"/>
	<path class="st0" d="M611.6,213.4L539.9,412"/>
	<path class="st0" d="M539.7,412.2l-156-6"/>
	<path class="st0" d="M383.7,406l4.4-100"/>
	<path class="st0" d="M388.1,306l88.7,46.3"/>
	<path class="st0" d="M476.9,352.3l-72.7,138.2"/>
	<path class="st0" d="M404.4,490.2l-208-37.2"/>
	<path class="st0" d="M196.3,453.1l-54.2-236.6"/>
	<path class="st0" d="M142.2,216.5L335.8,70"/>
	<path class="st0" d="M335.8,70L519,175.2"/>
	<path class="st0" d="M519,175.2l-33,152.6"/>
	<path class="st0" d="M486,327.7L388.1,306"/>
	<path class="st0" d="M388.1,306l61-79.6"/>
	<path class="st0" d="M449.1,226.4L572.4,322"/>
	<path class="st0" d="M572.4,322.2l-72.7,198.4"/>
	<path class="st0" d="M499.9,520.3l-242.6,12.3"/>
	<path class="st0" d="M257.3,532.6L146.6,316.5"/>
	<path class="st0" d="M146.6,316.5l135.3-162.2"/>
	<path class="st0" d="M281.9,154.5l144.4,59.1"/>
	<path class="st0" d="M426.4,213.4L388.1,306"/>
	<path class="st0" d="M388.1,306l-67.8-73.8"/>
	<path class="st0" d="M320.4,232.2L436,127.3"/>
	<path class="st0" d="M436,127.3l182.7,106"/>
	<path class="st0" d="M618.7,233.3l-30.1,241"/>
	<path class="st0" d="M588.6,474.3l-232.1,71.4"/>
	<path class="st0" d="M356.5,545.7L220.4,384.2"/>
	<path class="st0" d="M220.4,384.2l83.2-131.9"/>
	<path class="st0" d="M303.6,252.1l84.5,53.9"/>
	<path class="st0" d="M388.1,306l-84.5,53.9"/>
	<path class="st0" d="M303.6,359.9L220.4,228"/>
	<path class="st0" d="M220.4,227.8L356.5,66.3"/>
	<path class="st0" d="M356.5,66.3l232.1,71.4"/>
	<path class="st0" d="M588.6,137.7l30.1,241"/>
	<path class="st0" d="M618.7,378.7L436,484.7"/>
	<path class="st0" d="M436,484.7L320.4,379.8"/>
	<path class="st0" d="M320.4,379.8l67.8-73.8"/>
	<path class="st0" d="M388.1,306l38.2,92.6"/>
	<path class="st0" d="M426.4,398.6l-144.4,59.1"/>
	<path class="st0" d="M281.9,457.5L146.6,295.3"/>
	<path class="st0" d="M146.6,295.5L257.3,79.4"/>
	<path class="st0" d="M257.3,79.4l242.6,12.3"/>
	<path class="st0" d="M499.9,91.7L572.6,290"/>
	<path class="st0" d="M572.4,289.8l-123.3,95.5"/>
	<path class="st0" d="M449.1,385.6l-61-79.6"/>
	<path class="st0" d="M388.1,306l97.9-21.7"/>
	<path class="st0" d="M486,284.3l33,152.6"/>
	<path class="st0" d="M519,436.8L335.8,542"/>
	<path class="st0" d="M335.8,542L142.2,395.5"/>
	<path class="st0" d="M142.2,395.5l54.2-236.6"/>
	<path class="st0" d="M196.3,158.9l208-37.2"/>
	<path class="st0" d="M404.4,121.8l72.7,138.2"/>
	<path class="st0" d="M476.9,259.7L388.1,306"/>
	<path class="st0" d="M388.1,306l-4.4-100"/>
	<path class="st0" d="M383.7,206l156-6"/>
	<path class="st0" d="M539.7,199.8l71.7,198.6"/>
	<path class="st0" d="M611.6,398.6L433.7,563.8"/>
	<path class="st0" d="M433.7,563.8l-223.7-94.5"/>
	<path class="st0" d="M209.9,469.3l-0.5-211.2"/>
	<path class="st0" d="M209.4,258.1l148.6-47.6"/>
	<path class="st0" d="M358.1,210.5l30.1,95.5"/>
	<path class="st0" d="M388.1,306L289,292.9"/>
	<path class="st0" d="M289,292.9l21.2-154.7"/>
	<path class="st0" d="M309.9,138.3l208-36.1"/>
	<path class="st0" d="M517.9,102.1L649.8,306"/>
	<path class="st0" d="M649.8,306L517.9,509.9"/>
	<path class="st0" d="M517.9,509.9l-208-36.1"/>
	<path class="st0" d="M309.9,473.7l-21.2-154.7"/>
	<path class="st0" d="M289,319.1l99.2-13.1"/>
	<path class="st0" d="M388.1,306l-30.1,95.5"/>
	<path class="st0" d="M358.1,401.5l-148.6-47.6"/>
	<path class="st0" d="M209.4,353.9l0.5-211.2"/>
	<path class="st0" d="M209.9,142.7l223.7-94.5"/>
	<path class="st0" d="M433.7,48.2l177.9,165.1"/>
	<path class="st0" d="M611.6,213.4L539.9,412"/>
	<path class="st0" d="M539.7,412.2l-156-6"/>
	<path class="st0" d="M383.7,406l4.4-100"/>
	<path class="st0" d="M388.1,306l88.7,46.3"/>
	<path class="st0" d="M476.9,352.3l-72.7,138.2"/>
	<path class="st0" d="M404.4,490.2l-208-37.2"/>
	<path class="st0" d="M196.3,453.1l-54.2-236.6"/>
	<path class="st0" d="M142.2,216.5L335.8,70"/>
	<path class="st0" d="M335.8,70L519,175.2"/>
	<path class="st0" d="M519,175.2l-33,152.6"/>
	<path class="st0" d="M486,327.7L388.1,306"/>
	<path class="st0" d="M388.1,306l61-79.6"/>
	<path class="st0" d="M449.1,226.4L572.4,322"/>
	<path class="st0" d="M572.4,322.2l-72.7,198.4"/>
	<path class="st0" d="M499.9,520.3l-242.6,12.3"/>
	<path class="st0" d="M257.3,532.6L146.6,316.5"/>
	<path class="st0" d="M146.6,316.5l135.3-162.2"/>
	<path class="st0" d="M281.9,154.5l144.4,59.1"/>
	<path class="st0" d="M426.4,213.4L388.1,306"/>
	<path class="st0" d="M388.1,306l-67.8-73.8"/>
	<path class="st0" d="M320.4,232.2L436,127.3"/>
	<path class="st0" d="M436,127.3l182.7,106"/>
	<path class="st0" d="M618.7,233.3l-30.1,241"/>
	<path class="st0" d="M588.6,474.3l-232.1,71.4"/>
	<path class="st0" d="M356.5,545.7L220.4,384.2"/>
	<path class="st0" d="M220.4,384.2l83.2-131.9"/>
	<path class="st0" d="M303.6,252.1l84.5,53.9"/>
	<path class="st0" d="M388.1,306l-84.5,53.9"/>
	<path class="st0" d="M303.6,359.9L220.4,228"/>
	<path class="st0" d="M220.4,227.8L356.5,66.3"/>
	<path class="st0" d="M356.5,66.3l232.1,71.4"/>
	<path class="st0" d="M588.6,137.7l30.1,241"/>
	<path class="st0" d="M618.7,378.7L436,484.7"/>
	<path class="st0" d="M436,484.7L320.4,379.8"/>
	<path class="st0" d="M320.4,379.8l67.8-73.8"/>
	<path class="st0" d="M388.1,306l38.2,92.6"/>
	<path class="st0" d="M426.4,398.6l-144.4,59.1"/>
	<path class="st0" d="M281.9,457.5L146.6,295.3"/>
	<path class="st0" d="M146.6,295.5L257.3,79.4"/>
	<path class="st0" d="M257.3,79.4l242.6,12.3"/>
	<path class="st0" d="M499.9,91.7L572.6,290"/>
	<path class="st0" d="M572.4,289.8l-123.3,95.5"/>
	<path class="st0" d="M449.1,385.6l-61-79.6"/>
	<path class="st0" d="M388.1,306l97.9-21.7"/>
	<path class="st0" d="M486,284.3l33,152.6"/>
	<path class="st0" d="M519,436.8L335.8,542"/>
	<path class="st0" d="M335.8,542L142.2,395.5"/>
	<path class="st0" d="M142.2,395.5l54.2-236.6"/>
	<path class="st0" d="M196.3,158.9l208-37.2"/>
	<path class="st0" d="M404.4,121.8l72.7,138.2"/>
	<path class="st0" d="M476.9,259.7L388.1,306"/>
	<path class="st0" d="M388.1,306l-4.4-100"/>
	<path class="st0" d="M383.7,206l156-6"/>
	<path class="st0" d="M539.7,199.8l71.7,198.6"/>
	<path class="st0" d="M611.6,398.6L433.7,563.8"/>
	<path class="st0" d="M433.7,563.8l-223.7-94.5"/>
	<path class="st0" d="M209.9,469.3l-0.5-211.2"/>
	<path class="st0" d="M209.4,258.1l148.6-47.6"/>
	<path class="st0" d="M358.1,210.5l30.1,95.5"/>
	<path class="st0" d="M388.1,306L289,292.9"/>
	<path class="st0" d="M289,292.9l21.2-154.7"/>
	<path class="st0" d="M309.9,138.3l208-36.1"/>
	<path class="st0" d="M517.9,102.1L649.8,306"/>
	<path class="st0" d="M649.8,306L517.9,509.9"/>
	<path class="st0" d="M517.9,509.9l-208-36.1"/>
	<path class="st0" d="M309.9,473.7l-21.2-154.7"/>
	<path class="st0" d="M289,319.1l99.2-13.1"/>
	<path class="st0" d="M388.1,306l-30.1,95.5"/>
	<path class="st0" d="M358.1,401.5l-148.6-47.6"/>
	<path class="st0" d="M209.4,353.9l0.5-211.2"/>
	<path class="st0" d="M209.9,142.7l223.7-94.5"/>
	<path class="st0" d="M433.7,48.2l177.9,165.1"/>
	<path class="st0" d="M611.6,213.4L539.9,412"/>
	<path class="st0" d="M539.7,412.2l-156-6"/>
	<path class="st0" d="M383.7,406l4.4-100"/>
	<path class="st0" d="M388.1,306l88.7,46.3"/>
	<path class="st0" d="M476.9,352.3l-72.7,138.2"/>
	<path class="st0" d="M404.4,490.2l-208-37.2"/>
	<path class="st0" d="M196.3,453.1l-54.2-236.6"/>
	<path class="st0" d="M142.2,216.5L335.8,70"/>
	<path class="st0" d="M335.8,70L519,175.2"/>
	<path class="st0" d="M519,175.2l-33,152.6"/>
	<path class="st0" d="M486,327.7L388.1,306"/>
	<path class="st0" d="M388.1,306l61-79.6"/>
	<path class="st0" d="M449.1,226.4L572.4,322"/>
	<path class="st0" d="M572.4,322.2l-72.7,198.4"/>
	<path class="st0" d="M499.9,520.3l-242.6,12.3"/>
	<path class="st0" d="M257.3,532.6L146.6,316.5"/>
	<path class="st0" d="M146.6,316.5l135.3-162.2"/>
	<path class="st0" d="M281.9,154.5l144.4,59.1"/>
	<path class="st0" d="M426.4,213.4L388.1,306"/>
	<path class="st0" d="M388.1,306l-67.8-73.8"/>
	<path class="st0" d="M320.4,232.2L436,127.3"/>
	<path class="st0" d="M436,127.3l182.7,106"/>
	<path class="st0" d="M618.7,233.3l-30.1,241"/>
	<path class="st0" d="M588.6,474.3l-232.1,71.4"/>
	<path class="st0" d="M356.5,545.7L220.4,384.2"/>
	<path class="st0" d="M220.4,384.2l83.2-131.9"/>
	<path class="st0" d="M303.6,252.1l84.5,53.9"/>
	<path class="st0" d="M388.1,306l-84.5,53.9"/>
	<path class="st0" d="M303.6,359.9L220.4,228"/>
	<path class="st0" d="M220.4,227.8L356.5,66.3"/>
	<path class="st0" d="M356.5,66.3l232.1,71.4"/>
	<path class="st0" d="M588.6,137.7l30.1,241"/>
	<path class="st0" d="M618.7,378.7L436,484.7"/>
	<path class="st0" d="M436,484.7L320.4,379.8"/>
	<path class="st0" d="M320.4,379.8l67.8-73.8"/>
	<path class="st0" d="M388.1,306l38.2,92.6"/>
	<path class="st0" d="M426.4,398.6l-144.4,59.1"/>
	<path class="st0" d="M281.9,457.5L146.6,295.3"/>
	<path class="st0" d="M146.6,295.5L257.3,79.4"/>
	<path class="st0" d="M257.3,79.4l242.6,12.3"/>
	<path class="st0" d="M499.9,91.7L572.6,290"/>
	<path class="st0" d="M572.4,289.8l-123.3,95.5"/>
	<path class="st0" d="M449.1,385.6l-61-79.6"/>
	<path class="st0" d="M388.1,306l97.9-21.7"/>
	<path class="st0" d="M486,284.3l33,152.6"/>
	<path class="st0" d="M519,436.8L335.8,542"/>
</g>
</svg>
