<?xml version="1.0" encoding="utf-8"?>
<!-- Generator: Adobe Illustrator 24.3.0, SVG Export Plug-In . SVG Version: 6.00 Build 0)  -->
<svg version="1.1" id="Layer_1" xmlns="http://www.w3.org/2000/svg" xmlns:xlink="http://www.w3.org/1999/xlink" x="0px" y="0px"
	 viewBox="0 0 792 612" style="enable-background:new 0 0 792 612;" xml:space="preserve">
<style type="text/css">
	.st0{fill:none;stroke:#000000;stroke-linecap:round;stroke-miterlimit:10;}
</style>
<g>
	<path class="st0" d="M732,502"/>
	<path class="st0" d="M732,502l-41.3,49.2"/>
	<path class="st0" d="M690.7,551.2L635,519.1"/>
	<path class="st0" d="M635,519.1l22-60.4"/>
	<path class="st0" d="M657,458.7l63.3,11.2"/>
	<path class="st0" d="M720.3,469.9v64.3"/>
	<path class="st0" d="M720.3,534.1L657,545.3"/>
	<path class="st0" d="M657,545.3l-22-60.4"/>
	<path class="st0" d="M635,484.9l55.7-32.1"/>
	<path class="st0" d="M690.7,452.8L732,502"/>
	<path class="st0" d="M732,502l-41.3,49.2"/>
	<path class="st0" d="M690.7,551.2L635,519.1"/>
	<path class="st0" d="M635,519.1l22-60.4"/>
	<path class="st0" d="M657,458.7l63.3,11.2"/>
	<path class="st0" d="M720.3,469.9v64.3"/>
	<path class="st0" d="M720.3,534.1L657,545.3"/>
	<path class="st0" d="M657,545.3l-22-60.4"/>
	<path class="st0" d="M635,484.9l55.7-32.1"/>
	<path class="st0" d="M690.7,452.8L732,502"/>
	<path class="st0" d="M690.7,551.2"/>
</g>
</svg>
