<?xml version="1.0" encoding="utf-8"?>
<!-- Generator: Adobe Illustrator 24.3.0, SVG Export Plug-In . SVG Version: 6.00 Build 0)  -->
<svg version="1.1" id="Layer_1" xmlns="http://www.w3.org/2000/svg" xmlns:xlink="http://www.w3.org/1999/xlink" x="0px" y="0px"
	 viewBox="0 0 792 612" style="enable-background:new 0 0 792 612;" xml:space="preserve">
<style type="text/css">
	.st0{fill:none;stroke:#000000;stroke-linecap:round;stroke-miterlimit:10;}
</style>
<g>
	<path class="st0" d="M782,110"/>
	<path class="st0" d="M782,110l-60.9-45.1"/>
	<path class="st0" d="M721.1,64.9l-2.7,59.2"/>
	<path class="st0" d="M718.4,124.1L774,80"/>
	<path class="st0" d="M774,80l-66-43.2"/>
	<path class="st0" d="M708,36.8l-7.4,61.9"/>
	<path class="st0" d="M700.6,98.7L752,58"/>
	<path class="st0" d="M752,58L682.5,19"/>
	<path class="st0" d="M682.5,19l-10.1,66.6"/>
	<path class="st0" d="M672.4,85.6L722,50"/>
	<path class="st0" d="M722,50l-70.4-33.7"/>
	<path class="st0" d="M651.6,16.3l-10.1,72"/>
	<path class="st0" d="M641.5,88.3L692,58"/>
	<path class="st0" d="M692,58l-68.6-28.6"/>
	<path class="st0" d="M623.4,29.4l-7.4,76.7"/>
	<path class="st0" d="M616,106.1L670,80"/>
	<path class="st0" d="M670,80l-64.4-25.2"/>
	<path class="st0" d="M605.6,54.8l-2.7,79.4"/>
	<path class="st0" d="M602.9,134.2L662,110"/>
	<path class="st0" d="M662,110l-59.1-24.2"/>
	<path class="st0" d="M602.9,85.8l2.7,79.4"/>
	<path class="st0" d="M605.6,165.2L670,140"/>
	<path class="st0" d="M670,140l-54-26.1"/>
	<path class="st0" d="M616,113.9l7.4,76.7"/>
	<path class="st0" d="M623.4,190.6L692,162"/>
	<path class="st0" d="M692,162l-50.5-30.2"/>
	<path class="st0" d="M641.5,131.7l10.1,72"/>
	<path class="st0" d="M651.6,203.7L722,170"/>
	<path class="st0" d="M722,170l-49.6-35.6"/>
	<path class="st0" d="M672.4,134.4l10.1,66.6"/>
	<path class="st0" d="M682.5,201L752,162"/>
	<path class="st0" d="M752,162l-51.4-40.6"/>
	<path class="st0" d="M700.6,121.3l7.4,61.9"/>
	<path class="st0" d="M708,183.2l66-43.2"/>
	<path class="st0" d="M774,140l-55.6-44.1"/>
	<path class="st0" d="M718.4,95.9l2.7,59.2"/>
	<path class="st0" d="M721.1,155.1L782,110"/>
	<path class="st0" d="M782,110l-60.9-45.1"/>
	<path class="st0" d="M721.1,64.9l-2.7,59.2"/>
	<path class="st0" d="M718.4,124.1L774,80"/>
	<path class="st0" d="M774,80l-66-43.2"/>
	<path class="st0" d="M708,36.8l-7.4,61.9"/>
	<path class="st0" d="M700.6,98.7L752,58"/>
	<path class="st0" d="M752,58L682.5,19"/>
	<path class="st0" d="M682.5,19l-10.1,66.6"/>
	<path class="st0" d="M672.4,85.6L722,50"/>
	<path class="st0" d="M722,50l-70.4-33.7"/>
	<path class="st0" d="M651.6,16.3l-10.1,72"/>
	<path class="st0" d="M641.5,88.3L692,58"/>
	<path class="st0" d="M692,58l-68.6-28.6"/>
	<path class="st0" d="M623.4,29.4l-7.4,76.7"/>
	<path class="st0" d="M616,106.1L670,80"/>
	<path class="st0" d="M670,80l-64.4-25.2"/>
	<path class="st0" d="M605.6,54.8l-2.7,79.4"/>
	<path class="st0" d="M602.9,134.2L662,110"/>
	<path class="st0" d="M662,110l-59.1-24.2"/>
	<path class="st0" d="M602.9,85.8l2.7,79.4"/>
	<path class="st0" d="M605.6,165.2L670,140"/>
	<path class="st0" d="M670,140l-54-26.1"/>
	<path class="st0" d="M616,113.9l7.4,76.7"/>
	<path class="st0" d="M623.4,190.6L692,162"/>
	<path class="st0" d="M692,162l-50.5-30.2"/>
	<path class="st0" d="M641.5,131.7l10.1,72"/>
	<path class="st0" d="M651.6,203.7L722,170"/>
	<path class="st0" d="M722,170l-49.6-35.6"/>
	<path class="st0" d="M672.4,134.4l10.1,66.6"/>
	<path class="st0" d="M682.5,201L752,162"/>
	<path class="st0" d="M752,162l-51.4-40.6"/>
	<path class="st0" d="M700.6,121.3l7.4,61.9"/>
	<path class="st0" d="M708,183.2l66-43.2"/>
	<path class="st0" d="M774,140l-55.6-44.1"/>
	<path class="st0" d="M718.4,95.9l2.7,59.2"/>
	<path class="st0" d="M721.1,155.1L782,110"/>
	<path class="st0" d="M721.1,64.9"/>
	<path class="st0" d="M721.1,64.9l-2.7,59.2"/>
	<path class="st0" d="M718.4,124.1L774,80"/>
	<path class="st0" d="M774,80l-66-43.2"/>
	<path class="st0" d="M708,36.8l-7.4,61.9"/>
	<path class="st0" d="M700.6,98.7L752,58"/>
	<path class="st0" d="M752,58L682.5,19"/>
	<path class="st0" d="M682.5,19l-10.1,66.6"/>
	<path class="st0" d="M672.4,85.6L722,50"/>
	<path class="st0" d="M722,50l-70.4-33.7"/>
	<path class="st0" d="M651.6,16.3l-10.1,72"/>
	<path class="st0" d="M641.5,88.3L692,58"/>
	<path class="st0" d="M692,58l-68.6-28.6"/>
	<path class="st0" d="M623.4,29.4l-7.4,76.7"/>
	<path class="st0" d="M616,106.1L670,80"/>
	<path class="st0" d="M670,80l-64.4-25.2"/>
	<path class="st0" d="M605.6,54.8l-2.7,79.4"/>
	<path class="st0" d="M602.9,134.2L662,110"/>
	<path class="st0" d="M662,110l-59.1-24.2"/>
	<path class="st0" d="M602.9,85.8l2.7,79.4"/>
	<path class="st0" d="M605.6,165.2L670,140"/>
	<path class="st0" d="M670,140l-54-26.1"/>
	<path class="st0" d="M616,113.9l7.4,76.7"/>
	<path class="st0" d="M623.4,190.6L692,162"/>
	<path class="st0" d="M692,162l-50.5-30.2"/>
	<path class="st0" d="M641.5,131.7l10.1,72"/>
	<path class="st0" d="M651.6,203.7L722,170"/>
</g>
</svg>
