<?xml version="1.0" encoding="utf-8"?>
<!-- Generator: Adobe Illustrator 24.3.0, SVG Export Plug-In . SVG Version: 6.00 Build 0)  -->
<svg version="1.1" id="Layer_1" xmlns="http://www.w3.org/2000/svg" xmlns:xlink="http://www.w3.org/1999/xlink" x="0px" y="0px"
	 viewBox="0 0 792 612" style="enable-background:new 0 0 792 612;" xml:space="preserve">
<style type="text/css">
	.st0{fill:none;stroke:#000000;stroke-linecap:round;stroke-miterlimit:10;}
</style>
<g>
	<path class="st0" d="M185,502"/>
	<path class="st0" d="M185,502l-15.6-32.9"/>
	<path class="st0" d="M169.4,469.1l-31.8-6.7"/>
	<path class="st0" d="M137.6,462.3L119.6,482"/>
	<path class="st0" d="M119.6,482l11,20.3"/>
	<path class="st0" d="M130.6,502.3l25.1-4.9"/>
	<path class="st0" d="M155.7,497.3l9.3-30"/>
	<path class="st0" d="M165,467.4l-21.3-28.9"/>
	<path class="st0" d="M143.7,438.4l-36.7-1.8"/>
	<path class="st0" d="M106.9,436.6L85,462"/>
	<path class="st0" d="M85,462l8.1,26.6"/>
	<path class="st0" d="M93.1,488.6l23.3,1.8"/>
	<path class="st0" d="M116.3,490.4l8.7-23"/>
	<path class="st0" d="M125,467.4l-20.7-22"/>
	<path class="st0" d="M104.3,445.4l-34.9,4.9"/>
	<path class="st0" d="M69.4,450.3l-19,31.7"/>
	<path class="st0" d="M50.4,482l12.1,32.3"/>
	<path class="st0" d="M62.4,514.3l28.2,6.7"/>
	<path class="st0" d="M90.6,521l14.4-19"/>
	<path class="st0" d="M105,502l-14.4-19"/>
	<path class="st0" d="M90.6,483l-28.2,6.7"/>
	<path class="st0" d="M62.4,489.7L50.4,522"/>
	<path class="st0" d="M50.4,522l19,31.7"/>
	<path class="st0" d="M69.4,553.7l34.9,4.9"/>
	<path class="st0" d="M104.3,558.6l20.7-22"/>
	<path class="st0" d="M125,536.6l-8.7-23"/>
	<path class="st0" d="M116.3,513.6l-23.3,1.8"/>
	<path class="st0" d="M93.1,515.4L85,542"/>
	<path class="st0" d="M85,542l21.9,25.4"/>
	<path class="st0" d="M106.9,567.4l36.7-1.8"/>
	<path class="st0" d="M143.7,565.6l21.3-28.9"/>
	<path class="st0" d="M165,536.6l-9.3-30"/>
	<path class="st0" d="M155.7,506.7l-25.1-4.9"/>
	<path class="st0" d="M130.6,501.7l-11,20.3"/>
	<path class="st0" d="M119.6,522l17.9,19.7"/>
	<path class="st0" d="M137.6,541.7l31.8-6.7"/>
	<path class="st0" d="M169.4,534.9L185,502"/>
	<path class="st0" d="M185,502l-15.6-32.9"/>
	<path class="st0" d="M169.4,469.1l-31.8-6.7"/>
	<path class="st0" d="M137.6,462.3L119.6,482"/>
	<path class="st0" d="M119.6,482l11,20.3"/>
	<path class="st0" d="M130.6,502.3l25.1-4.9"/>
	<path class="st0" d="M155.7,497.3l9.3-30"/>
	<path class="st0" d="M165,467.4l-21.3-28.9"/>
	<path class="st0" d="M143.7,438.4l-36.7-1.8"/>
	<path class="st0" d="M106.9,436.6L85,462"/>
	<path class="st0" d="M85,462l8.1,26.6"/>
	<path class="st0" d="M93.1,488.6l23.3,1.8"/>
	<path class="st0" d="M116.3,490.4l8.7-23"/>
	<path class="st0" d="M125,467.4l-20.7-22"/>
	<path class="st0" d="M104.3,445.4l-34.9,4.9"/>
	<path class="st0" d="M69.4,450.3l-19,31.7"/>
	<path class="st0" d="M50.4,482l12.1,32.3"/>
	<path class="st0" d="M62.4,514.3l28.2,6.7"/>
	<path class="st0" d="M90.6,521l14.4-19"/>
	<path class="st0" d="M105,502l-14.4-19"/>
	<path class="st0" d="M90.6,483l-28.2,6.7"/>
	<path class="st0" d="M62.4,489.7L50.4,522"/>
	<path class="st0" d="M50.4,522l19,31.7"/>
	<path class="st0" d="M69.4,553.7l34.9,4.9"/>
	<path class="st0" d="M104.3,558.6l20.7-22"/>
	<path class="st0" d="M125,536.6l-8.7-23"/>
	<path class="st0" d="M116.3,513.6l-23.3,1.8"/>
	<path class="st0" d="M93.1,515.4L85,542"/>
	<path class="st0" d="M85,542l21.9,25.4"/>
	<path class="st0" d="M106.9,567.4l36.7-1.8"/>
	<path class="st0" d="M143.7,565.6l21.3-28.9"/>
	<path class="st0" d="M165,536.6l-9.3-30"/>
	<path class="st0" d="M155.7,506.7l-25.1-4.9"/>
	<path class="st0" d="M130.6,501.7l-11,20.3"/>
	<path class="st0" d="M119.6,522l17.9,19.7"/>
	<path class="st0" d="M137.6,541.7l31.8-6.7"/>
	<path class="st0" d="M169.4,534.9L185,502"/>
	<path class="st0" d="M169.4,469.1"/>
	<path class="st0" d="M169.4,469.1l-31.8-6.7"/>
	<path class="st0" d="M137.6,462.3L119.6,482"/>
	<path class="st0" d="M119.6,482l11,20.3"/>
	<path class="st0" d="M130.6,502.3l25.1-4.9"/>
	<path class="st0" d="M155.7,497.3l9.3-30"/>
	<path class="st0" d="M165,467.4l-21.3-28.9"/>
	<path class="st0" d="M143.7,438.4l-36.7-1.8"/>
	<path class="st0" d="M106.9,436.6L85,462"/>
	<path class="st0" d="M85,462l8.1,26.6"/>
	<path class="st0" d="M93.1,488.6l23.3,1.8"/>
	<path class="st0" d="M116.3,490.4l8.7-23"/>
	<path class="st0" d="M125,467.4l-20.7-22"/>
	<path class="st0" d="M104.3,445.4l-34.9,4.9"/>
	<path class="st0" d="M69.4,450.3l-19,31.7"/>
	<path class="st0" d="M50.4,482l12.1,32.3"/>
	<path class="st0" d="M62.4,514.3l28.2,6.7"/>
	<path class="st0" d="M90.6,521l14.4-19"/>
	<path class="st0" d="M105,502l-14.4-19"/>
	<path class="st0" d="M90.6,483l-28.2,6.7"/>
	<path class="st0" d="M62.4,489.7L50.4,522"/>
	<path class="st0" d="M50.4,522l19,31.7"/>
	<path class="st0" d="M69.4,553.7l34.9,4.9"/>
	<path class="st0" d="M104.3,558.6l20.7-22"/>
	<path class="st0" d="M125,536.6l-8.7-23"/>
	<path class="st0" d="M116.3,513.6l-23.3,1.8"/>
</g>
</svg>
