<?xml version="1.0" encoding="utf-8"?>
<!-- Generator: Adobe Illustrator 24.3.0, SVG Export Plug-In . SVG Version: 6.00 Build 0)  -->
<svg version="1.1" id="Layer_1" xmlns="http://www.w3.org/2000/svg" xmlns:xlink="http://www.w3.org/1999/xlink" x="0px" y="0px"
	 viewBox="0 0 792 612" style="enable-background:new 0 0 792 612;" xml:space="preserve">
<style type="text/css">
	.st0{fill:none;stroke:#000000;stroke-linecap:round;stroke-miterlimit:10;}
</style>
<g>
	<path class="st0" d="M190,110"/>
	<path class="st0" d="M190,110l-93.9,78.8"/>
	<path class="st0" d="M96.1,188.8L34.8,82.6"/>
	<path class="st0" d="M34.8,82.6L150,40.7"/>
	<path class="st0" d="M150,40.7l21.3,120.7"/>
	<path class="st0" d="M171.3,161.4H48.7"/>
	<path class="st0" d="M48.7,161.4L70,40.7"/>
	<path class="st0" d="M70,40.7l115.2,41.9"/>
	<path class="st0" d="M185.2,82.6l-61.3,106.1"/>
	<path class="st0" d="M123.9,188.8L30,110"/>
	<path class="st0" d="M30,110l93.9-78.8"/>
	<path class="st0" d="M123.9,31.2l61.3,106.1"/>
	<path class="st0" d="M185.2,137.4L70,179.3"/>
	<path class="st0" d="M70,179.3L48.7,58.6"/>
	<path class="st0" d="M48.7,58.6h122.6"/>
	<path class="st0" d="M171.3,58.6L150,179.3"/>
	<path class="st0" d="M150,179.3L34.8,137.4"/>
	<path class="st0" d="M34.8,137.4L96.1,31.2"/>
	<path class="st0" d="M96.1,31.2L190,110"/>
	<path class="st0" d="M190,110l-93.9,78.8"/>
	<path class="st0" d="M96.1,188.8L34.8,82.6"/>
	<path class="st0" d="M34.8,82.6L150,40.7"/>
	<path class="st0" d="M150,40.7l21.3,120.7"/>
	<path class="st0" d="M171.3,161.4H48.7"/>
	<path class="st0" d="M48.7,161.4L70,40.7"/>
	<path class="st0" d="M70,40.7l115.2,41.9"/>
	<path class="st0" d="M185.2,82.6l-61.3,106.1"/>
	<path class="st0" d="M123.9,188.8L30,110"/>
	<path class="st0" d="M30,110l93.9-78.8"/>
	<path class="st0" d="M123.9,31.2l61.3,106.1"/>
	<path class="st0" d="M185.2,137.4L70,179.3"/>
	<path class="st0" d="M70,179.3L48.7,58.6"/>
	<path class="st0" d="M48.7,58.6h122.6"/>
	<path class="st0" d="M171.3,58.6L150,179.3"/>
	<path class="st0" d="M150,179.3L34.8,137.4"/>
	<path class="st0" d="M34.8,137.4L96.1,31.2"/>
	<path class="st0" d="M96.1,31.2L190,110"/>
	<path class="st0" d="M190,110l-93.9,78.8"/>
	<path class="st0" d="M96.1,188.8L34.8,82.6"/>
	<path class="st0" d="M34.8,82.6L150,40.7"/>
	<path class="st0" d="M150,40.7l21.3,120.7"/>
	<path class="st0" d="M171.3,161.4H48.7"/>
	<path class="st0" d="M48.7,161.4L70,40.7"/>
	<path class="st0" d="M70,40.7l115.2,41.9"/>
	<path class="st0" d="M185.2,82.6l-61.3,106.1"/>
	<path class="st0" d="M123.9,188.8L30,110"/>
	<path class="st0" d="M30,110l93.9-78.8"/>
	<path class="st0" d="M123.9,31.2l61.3,106.1"/>
	<path class="st0" d="M185.2,137.4L70,179.3"/>
	<path class="st0" d="M70,179.3L48.7,58.6"/>
	<path class="st0" d="M48.7,58.6h122.6"/>
	<path class="st0" d="M171.3,58.6L150,179.3"/>
	<path class="st0" d="M150,179.3L34.8,137.4"/>
	<path class="st0" d="M34.8,137.4L96.1,31.2"/>
	<path class="st0" d="M96.1,31.2L190,110"/>
	<path class="st0" d="M190,110l-93.9,78.8"/>
	<path class="st0" d="M96.1,188.8L34.8,82.6"/>
	<path class="st0" d="M34.8,82.6L150,40.7"/>
	<path class="st0" d="M150,40.7l21.3,120.7"/>
	<path class="st0" d="M171.3,161.4H48.7"/>
	<path class="st0" d="M48.7,161.4L70,40.7"/>
	<path class="st0" d="M70,40.7l115.2,41.9"/>
	<path class="st0" d="M185.2,82.6l-61.3,106.1"/>
	<path class="st0" d="M123.9,188.8L30,110"/>
	<path class="st0" d="M30,110l93.9-78.8"/>
	<path class="st0" d="M123.9,31.2l61.3,106.1"/>
	<path class="st0" d="M185.2,137.4L70,179.3"/>
	<path class="st0" d="M70,179.3L48.7,58.6"/>
	<path class="st0" d="M48.7,58.6h122.6"/>
	<path class="st0" d="M171.3,58.6L150,179.3"/>
	<path class="st0" d="M150,179.3L34.8,137.4"/>
	<path class="st0" d="M34.8,137.4L96.1,31.2"/>
	<path class="st0" d="M96.1,31.2L190,110"/>
	<path class="st0" d="M190,110l-93.9,78.8"/>
	<path class="st0" d="M96.1,188.8L34.8,82.6"/>
	<path class="st0" d="M34.8,82.6L150,40.7"/>
	<path class="st0" d="M150,40.7l21.3,120.7"/>
	<path class="st0" d="M171.3,161.4H48.7"/>
	<path class="st0" d="M48.7,161.4L70,40.7"/>
	<path class="st0" d="M70,40.7l115.2,41.9"/>
	<path class="st0" d="M185.2,82.6l-61.3,106.1"/>
	<path class="st0" d="M123.9,188.8L30,110"/>
	<path class="st0" d="M30,110l93.9-78.8"/>
	<path class="st0" d="M123.9,31.2l61.3,106.1"/>
	<path class="st0" d="M185.2,137.4L70,179.3"/>
	<path class="st0" d="M70,179.3L48.7,58.6"/>
	<path class="st0" d="M48.7,58.6h122.6"/>
	<path class="st0" d="M171.3,58.6L150,179.3"/>
	<path class="st0" d="M150,179.3L34.8,137.4"/>
	<path class="st0" d="M34.8,137.4L96.1,31.2"/>
	<path class="st0" d="M96.1,31.2L190,110"/>
	<path class="st0" d="M96.1,188.8"/>
	<path class="st0" d="M96.1,188.8L34.8,82.6"/>
	<path class="st0" d="M34.8,82.6L150,40.7"/>
	<path class="st0" d="M150,40.7l21.3,120.7"/>
	<path class="st0" d="M171.3,161.4H48.7"/>
	<path class="st0" d="M48.7,161.4L70,40.7"/>
	<path class="st0" d="M70,40.7l115.2,41.9"/>
	<path class="st0" d="M185.2,82.6l-61.3,106.1"/>
	<path class="st0" d="M123.9,188.8L30,110"/>
</g>
</svg>
