<?xml version="1.0" encoding="utf-8"?>
<!-- Generator: Adobe Illustrator 24.3.0, SVG Export Plug-In . SVG Version: 6.00 Build 0)  -->
<svg version="1.1" id="Layer_1" xmlns="http://www.w3.org/2000/svg" xmlns:xlink="http://www.w3.org/1999/xlink" x="0px" y="0px"
	 viewBox="0 0 792 612" style="enable-background:new 0 0 792 612;" xml:space="preserve">
<style type="text/css">
	.st0{fill:none;stroke:#000000;stroke-linecap:round;stroke-miterlimit:10;}
</style>
<g>
	<path class="st0" d="M496,306l-50.4,77.9"/>
	<path class="st0" d="M445.6,383.9l-79.5-13.8"/>
	<path class="st0" d="M366.1,370.1l-8.1-59.1"/>
	<path class="st0" d="M358.1,311l37.9-5"/>
	<path class="st0" d="M396,306l-11.5,36.5"/>
	<path class="st0" d="M384.5,342.5l-56.8-18.2"/>
	<path class="st0" d="M327.7,324.3l0.2-80.7"/>
	<path class="st0" d="M327.9,243.6l85.5-36.1"/>
	<path class="st0" d="M413.4,207.5l68,63.1"/>
	<path class="st0" d="M481.4,270.6l-27.4,75.9"/>
	<path class="st0" d="M453.9,346.6l-59.6-2.3"/>
	<path class="st0" d="M394.3,344.2L396,306"/>
	<path class="st0" d="M396,306l33.9,17.7"/>
	<path class="st0" d="M429.9,323.7l-27.8,52.8"/>
	<path class="st0" d="M402.2,376.4l-79.5-14.2"/>
	<path class="st0" d="M322.7,362.2L302,271.8"/>
	<path class="st0" d="M302,271.8l74-56"/>
	<path class="st0" d="M376,215.8l70,40.2"/>
	<path class="st0" d="M446,256l-12.6,58.3"/>
	<path class="st0" d="M433.4,314.3L396,306"/>
	<path class="st0" d="M396,306l23.3-30.4"/>
	<path class="st0" d="M419.3,275.6l47.1,36.5"/>
	<path class="st0" d="M466.4,312.2l-27.8,75.8"/>
	<path class="st0" d="M438.7,387.9l-92.7,4.7"/>
	<path class="st0" d="M346,392.6L303.7,310"/>
	<path class="st0" d="M303.7,310l51.7-62"/>
	<path class="st0" d="M355.4,248.1l55.2,22.6"/>
	<path class="st0" d="M410.6,270.6L396,306"/>
	<path class="st0" d="M396,306l-25.9-28.2"/>
	<path class="st0" d="M370.1,277.8l44.2-40.1"/>
	<path class="st0" d="M414.3,237.7l69.8,40.5"/>
	<path class="st0" d="M484.1,278.2l-11.5,92.1"/>
	<path class="st0" d="M472.6,370.3l-88.7,27.3"/>
	<path class="st0" d="M383.9,397.6l-52-61.7"/>
	<path class="st0" d="M331.9,335.9l31.8-50.4"/>
	<path class="st0" d="M363.7,285.4L396,306"/>
	<path class="st0" d="M396,306l-32.3,20.6"/>
	<path class="st0" d="M363.7,326.6l-31.8-50.4"/>
	<path class="st0" d="M331.9,276.1l52-61.7"/>
	<path class="st0" d="M383.9,214.4l88.7,27.3"/>
	<path class="st0" d="M472.6,241.7l11.5,92.1"/>
	<path class="st0" d="M484.1,333.8l-69.8,40.5"/>
	<path class="st0" d="M414.3,374.3l-44.2-40.1"/>
	<path class="st0" d="M370.1,334.2L396,306"/>
	<path class="st0" d="M396,306l14.6,35.4"/>
	<path class="st0" d="M410.6,341.4l-55.2,22.6"/>
	<path class="st0" d="M355.4,363.9l-51.7-62"/>
	<path class="st0" d="M303.7,302l42.3-82.6"/>
	<path class="st0" d="M346,219.4l92.7,4.7"/>
	<path class="st0" d="M438.7,224.1l27.8,75.8"/>
	<path class="st0" d="M466.4,299.8l-47.1,36.5"/>
	<path class="st0" d="M419.3,336.4L396,306"/>
	<path class="st0" d="M396,306l37.4-8.3"/>
	<path class="st0" d="M433.4,297.7L446,356"/>
	<path class="st0" d="M446,356l-70,40.2"/>
	<path class="st0" d="M376,396.2l-74-56"/>
	<path class="st0" d="M302,340.2l20.7-90.4"/>
	<path class="st0" d="M322.7,249.8l79.5-14.2"/>
	<path class="st0" d="M402.2,235.6l27.8,52.8"/>
	<path class="st0" d="M429.9,288.3L396,306"/>
	<path class="st0" d="M396,306l-1.7-38.2"/>
	<path class="st0" d="M394.3,267.8l59.6-2.3"/>
	<path class="st0" d="M453.9,265.4l27.4,75.9"/>
	<path class="st0" d="M481.4,341.4l-68,63.1"/>
	<path class="st0" d="M413.4,404.5l-85.5-36.1"/>
	<path class="st0" d="M327.9,368.4l-0.2-80.7"/>
	<path class="st0" d="M327.7,287.7l56.8-18.2"/>
	<path class="st0" d="M384.5,269.5L396,306"/>
	<path class="st0" d="M396,306l-37.9-5"/>
	<path class="st0" d="M358.1,301l8.1-59.1"/>
	<path class="st0" d="M366.1,241.9l79.5-13.8"/>
	<path class="st0" d="M445.6,228.1L496,306"/>
	<path class="st0" d="M496,306l-50.4,77.9"/>
	<path class="st0" d="M445.6,383.9l-79.5-13.8"/>
	<path class="st0" d="M366.1,370.1l-8.1-59.1"/>
	<path class="st0" d="M358.1,311l37.9-5"/>
	<path class="st0" d="M396,306l-11.5,36.5"/>
	<path class="st0" d="M384.5,342.5l-56.8-18.2"/>
	<path class="st0" d="M327.7,324.3l0.2-80.7"/>
	<path class="st0" d="M327.9,243.6l85.5-36.1"/>
	<path class="st0" d="M413.4,207.5l68,63.1"/>
	<path class="st0" d="M481.4,270.6l-27.4,75.9"/>
	<path class="st0" d="M453.9,346.6l-59.6-2.3"/>
	<path class="st0" d="M394.3,344.2L396,306"/>
	<path class="st0" d="M396,306l33.9,17.7"/>
	<path class="st0" d="M429.9,323.7l-27.8,52.8"/>
	<path class="st0" d="M402.2,376.4l-79.5-14.2"/>
	<path class="st0" d="M322.7,362.2L302,271.8"/>
	<path class="st0" d="M302,271.8l74-56"/>
	<path class="st0" d="M376,215.8l70,40.2"/>
	<path class="st0" d="M446,256l-12.6,58.3"/>
	<path class="st0" d="M433.4,314.3L396,306"/>
	<path class="st0" d="M396,306l23.3-30.4"/>
	<path class="st0" d="M419.3,275.6l47.1,36.5"/>
	<path class="st0" d="M466.4,312.2l-27.8,75.8"/>
	<path class="st0" d="M438.7,387.9l-92.7,4.7"/>
	<path class="st0" d="M346,392.6L303.7,310"/>
	<path class="st0" d="M303.7,310l51.7-62"/>
	<path class="st0" d="M355.4,248.1l55.2,22.6"/>
	<path class="st0" d="M410.6,270.6L396,306"/>
	<path class="st0" d="M396,306l-25.9-28.2"/>
	<path class="st0" d="M370.1,277.8l44.2-40.1"/>
	<path class="st0" d="M414.3,237.7l69.8,40.5"/>
	<path class="st0" d="M484.1,278.2l-11.5,92.1"/>
	<path class="st0" d="M472.6,370.3l-88.7,27.3"/>
	<path class="st0" d="M383.9,397.6l-52-61.7"/>
	<path class="st0" d="M331.9,335.9l31.8-50.4"/>
	<path class="st0" d="M363.7,285.4L396,306"/>
	<path class="st0" d="M396,306l-32.3,20.6"/>
	<path class="st0" d="M363.7,326.6l-31.8-50.4"/>
	<path class="st0" d="M331.9,276.1l52-61.7"/>
	<path class="st0" d="M383.9,214.4l88.7,27.3"/>
	<path class="st0" d="M472.6,241.7l11.5,92.1"/>
	<path class="st0" d="M484.1,333.8l-69.8,40.5"/>
	<path class="st0" d="M414.3,374.3l-44.2-40.1"/>
	<path class="st0" d="M370.1,334.2L396,306"/>
	<path class="st0" d="M396,306l14.6,35.4"/>
	<path class="st0" d="M410.6,341.4l-55.2,22.6"/>
	<path class="st0" d="M355.4,363.9l-51.7-62"/>
	<path class="st0" d="M303.7,302l42.3-82.6"/>
	<path class="st0" d="M346,219.4l92.7,4.7"/>
	<path class="st0" d="M438.7,224.1l27.8,75.8"/>
	<path class="st0" d="M466.4,299.8l-47.1,36.5"/>
	<path class="st0" d="M419.3,336.4L396,306"/>
	<path class="st0" d="M396,306l37.4-8.3"/>
	<path class="st0" d="M433.4,297.7L446,356"/>
	<path class="st0" d="M446,356l-70,40.2"/>
	<path class="st0" d="M376,396.2l-74-56"/>
	<path class="st0" d="M302,340.2l20.7-90.4"/>
	<path class="st0" d="M322.7,249.8l79.5-14.2"/>
	<path class="st0" d="M402.2,235.6l27.8,52.8"/>
	<path class="st0" d="M429.9,288.3L396,306"/>
	<path class="st0" d="M396,306l-1.7-38.2"/>
	<path class="st0" d="M394.3,267.8l59.6-2.3"/>
	<path class="st0" d="M453.9,265.4l27.4,75.9"/>
	<path class="st0" d="M481.4,341.4l-68,63.1"/>
	<path class="st0" d="M413.4,404.5l-85.5-36.1"/>
	<path class="st0" d="M327.9,368.4l-0.2-80.7"/>
	<path class="st0" d="M327.7,287.7l56.8-18.2"/>
	<path class="st0" d="M384.5,269.5L396,306"/>
	<path class="st0" d="M396,306l-37.9-5"/>
	<path class="st0" d="M358.1,301l8.1-59.1"/>
	<path class="st0" d="M366.1,241.9l79.5-13.8"/>
	<path class="st0" d="M445.6,228.1L496,306"/>
	<path class="st0" d="M496,306l-50.4,77.9"/>
	<path class="st0" d="M445.6,383.9l-79.5-13.8"/>
	<path class="st0" d="M366.1,370.1l-8.1-59.1"/>
	<path class="st0" d="M358.1,311l37.9-5"/>
	<path class="st0" d="M396,306l-11.5,36.5"/>
	<path class="st0" d="M384.5,342.5l-56.8-18.2"/>
	<path class="st0" d="M327.7,324.3l0.2-80.7"/>
	<path class="st0" d="M327.9,243.6l85.5-36.1"/>
	<path class="st0" d="M413.4,207.5l68,63.1"/>
	<path class="st0" d="M481.4,270.6l-27.4,75.9"/>
	<path class="st0" d="M453.9,346.6l-59.6-2.3"/>
	<path class="st0" d="M394.3,344.2L396,306"/>
	<path class="st0" d="M396,306l33.9,17.7"/>
	<path class="st0" d="M429.9,323.7l-27.8,52.8"/>
	<path class="st0" d="M402.2,376.4l-79.5-14.2"/>
	<path class="st0" d="M322.7,362.2L302,271.8"/>
	<path class="st0" d="M302,271.8l74-56"/>
	<path class="st0" d="M376,215.8l70,40.2"/>
	<path class="st0" d="M446,256l-12.6,58.3"/>
	<path class="st0" d="M433.4,314.3L396,306"/>
	<path class="st0" d="M396,306l23.3-30.4"/>
	<path class="st0" d="M419.3,275.6l47.1,36.5"/>
	<path class="st0" d="M466.4,312.2l-27.8,75.8"/>
	<path class="st0" d="M438.7,387.9l-92.7,4.7"/>
	<path class="st0" d="M346,392.6L303.7,310"/>
	<path class="st0" d="M303.7,310l51.7-62"/>
	<path class="st0" d="M355.4,248.1l55.2,22.6"/>
	<path class="st0" d="M410.6,270.6L396,306"/>
	<path class="st0" d="M396,306l-25.9-28.2"/>
	<path class="st0" d="M370.1,277.8l44.2-40.1"/>
	<path class="st0" d="M414.3,237.7l69.8,40.5"/>
	<path class="st0" d="M484.1,278.2l-11.5,92.1"/>
	<path class="st0" d="M472.6,370.3l-88.7,27.3"/>
	<path class="st0" d="M383.9,397.6l-52-61.7"/>
	<path class="st0" d="M331.9,335.9l31.8-50.4"/>
	<path class="st0" d="M363.7,285.4L396,306"/>
	<path class="st0" d="M396,306l-32.3,20.6"/>
	<path class="st0" d="M363.7,326.6l-31.8-50.4"/>
	<path class="st0" d="M331.9,276.1l52-61.7"/>
	<path class="st0" d="M383.9,214.4l88.7,27.3"/>
	<path class="st0" d="M472.6,241.7l11.5,92.1"/>
	<path class="st0" d="M484.1,333.8l-69.8,40.5"/>
	<path class="st0" d="M414.3,374.3l-44.2-40.1"/>
	<path class="st0" d="M370.1,334.2L396,306"/>
	<path class="st0" d="M396,306l14.6,35.4"/>
	<path class="st0" d="M410.6,341.4l-55.2,22.6"/>
	<path class="st0" d="M355.4,363.9l-51.7-62"/>
	<path class="st0" d="M303.7,302l42.3-82.6"/>
	<path class="st0" d="M346,219.4l92.7,4.7"/>
	<path class="st0" d="M438.7,224.1l27.8,75.8"/>
	<path class="st0" d="M466.4,299.8l-47.1,36.5"/>
	<path class="st0" d="M419.3,336.4L396,306"/>
	<path class="st0" d="M396,306l37.4-8.3"/>
	<path class="st0" d="M433.4,297.7L446,356"/>
	<path class="st0" d="M446,356l-70,40.2"/>
</g>
</svg>
