<?xml version="1.0" encoding="utf-8"?>
<!-- Generator: Adobe Illustrator 24.3.0, SVG Export Plug-In . SVG Version: 6.00 Build 0)  -->
<svg version="1.1" id="Layer_1" xmlns="http://www.w3.org/2000/svg" xmlns:xlink="http://www.w3.org/1999/xlink" x="0px" y="0px"
	 viewBox="0 0 792 612" style="enable-background:new 0 0 792 612;" xml:space="preserve">
<style type="text/css">
	.st0{display:none;}
	.st1{display:inline;}
	.st2{fill:#FFFFFF;}
	.st3{fill:#FFFFFF;stroke:#FF0000;stroke-width:2.3703;stroke-miterlimit:23.7036;}
	.st4{fill:none;stroke:#FF0000;stroke-width:2.3703;stroke-miterlimit:9.4815;}
	.st5{fill:none;stroke:#FF0000;stroke-miterlimit:10;}
	.st6{fill:none;stroke:#000000;stroke-miterlimit:10;}
</style>
<g id="Layer_1_2_" class="st0">
	
		<g id="Layer_1_1_" inkscape:version="0.92.4 (5da689c313, 2019-01-14)" sodipodi:docname="Bubble Pack templatev2.svg" xmlns:cc="http://creativecommons.org/ns#" xmlns:dc="http://purl.org/dc/elements/1.1/" xmlns:inkscape="http://www.inkscape.org/namespaces/inkscape" xmlns:osb="http://www.openswatchbook.org/uri/2009/osb" xmlns:rdf="http://www.w3.org/1999/02/22-rdf-syntax-ns#" xmlns:sodipodi="http://sodipodi.sourceforge.net/DTD/sodipodi-0.dtd" xmlns:svg="http://www.w3.org/2000/svg" class="st1">
		<g id="Layer_2_1_" transform="scale(1.3333333)">
			<rect id="rect4" x="0" y="0" class="st2" width="594" height="459"/>
		</g>
		<g id="svg15158" transform="scale(1.3333333)" inkscape:version="0.91 r13725" sodipodi:docname="AxiDraw_First.svg">
			<path id="path11" inkscape:connector-curvature="0" class="st3" d="M537.4,313v-12.6h11.9c17.2,0,31.2-14.1,31.2-31.3v-79.4
				c0-17.2-14-31.2-31.2-31.2h-11.9v-12.7c0-17.2-14-31.2-31.2-31.2H375.4h-12.1H87.9c-17.2,0-31.2,14-31.2,31.2v12.6H44.8
				c-17.2,0-31.2,14-31.2,31.2V269c0,17.2,14,31.2,31.2,31.2h11.9v12.6c0,17.2,14,31.2,31.2,31.2h275.4h12.1h130.7
				C523.3,344.2,537.4,330.1,537.4,313L537.4,313z"/>
			<path id="path7" inkscape:connector-curvature="0" class="st3" d="M550.6,255v-15.9c0.1,0,0.1,0,0.1,0c5.3,0,9.7-4.3,9.7-9.7
				c0-5.3-4.4-9.7-9.7-9.7c-0.1,0-0.1,0-0.2,0v-15.9c0-2.8-2.3-5-5-5h-1.9c-2.8,0-5,2.3-5,5V255c0,2.8,2.3,5,5,5h1.9
				C548.3,260,550.6,257.8,550.6,255z"/>
			<path id="path9" inkscape:connector-curvature="0" class="st3" d="M43.4,203.8v15.9c-0.1,0-0.1,0-0.2,0c-5.3,0-9.7,4.3-9.7,9.7
				c0,5.3,4.3,9.7,9.7,9.7c0.1,0,0.1,0,0.2,0V255c0,2.8,2.3,5,5,5h1.9c2.8,0,5-2.3,5-5v-51.2c0-2.8-2.3-5-5-5h-1.9
				C45.7,198.8,43.4,201.1,43.4,203.8z"/>
			<g id="g19">
				<line id="line13" class="st4" x1="297" y1="115.3" x2="297" y2="117.5"/>
				<line id="line15" class="st4" x1="297" y1="122.2" x2="297" y2="339.7"/>
				<line id="line17" class="st4" x1="297" y1="342.1" x2="297" y2="344.3"/>
			</g>
		</g>
	</g>
	<g id="Layer_2_2_" class="st1">
	</g>
</g>
<g id="Layer_2_3_" class="st0">
</g>
<g id="Layer_4" class="st0">
	<g class="st1">
		<g>
			<path class="st5" d="M257.1,307.5"/>
			<path class="st5" d="M360.3,197.7"/>
			<path class="st5" d="M257.1,305.1c-3.6,65.5,30.6,104.9,47.4,111c0,0,4.3,4.8,51.4,3.2c0,0,4.4,0.1,4.4-5.6v-216"/>
			<path class="st5" d="M360.3,303.9"/>
		</g>
		<g>
			<path class="st5" d="M257.1,303.9"/>
			<path class="st5" d="M257.1,306.4c-3.6-65.5,30.6-104.9,47.4-111c0,0,4.3-4.8,51.4-3.2c0,0,4.4-0.1,4.4,5.6"/>
			<path class="st5" d="M360.3,307.5"/>
		</g>
	</g>
</g>
<g id="Layer_7">
	<g>
		<path class="st6" d="M27.4,230.3c-7.3-3.2-6.1,14.1-0.3,22.3c4,5.7,0.7,12.4-5.9,14.3c-2,0-3.1,5.1-3.1,5.1s0,44.6,0,51.2
			s2,10.1,2,10.1c2.2,4.6,5.5,6.9,9.7,4.3c3-1.8,6.7-5.7,6.7-8.6c0-7.5-0.7-15.4-3.1-22.5c-4.5-13-5.3-25.5,0.1-38.2
			c2.6-6,5.7-11.7,8.8-17.5c0,0,4-32.5-6-32.5S44.4,237.8,27.4,230.3z M61.6,364.3c-6.8-0.9-10.4,1.8-11.5,7.6
			c-0.9,4.6-1.7,9.3-1.7,14v12.9c0,0,9.1,2.6,10.1,1.6C59.6,399.2,61.6,364.3,61.6,364.3z M183.4,369.1c11.8,7.1,7.5,9.9,7.5,9.9
			c-1.2-1.5-3.9-1.7-5.9-2.6c-0.5,2-2.1,4.4-1.5,6c4,10.8,2.2,21.1-1.6,31.3c-5.6,15.1-4,29.9,2,44.3l16.7,0.5c0,0-2.5-8.4,0.8-11.6
			c1.6-1.6,3-6.1,5-6.3c2.6-0.3,6.1,1.6,8.2,3.7c2,1.9,2.4,5.4,4.1,7.8l3.2,6.5l36.5-0.3c0,0,9.9-22.7,6.9-30.5
			c-0.1-9.6-3.8-19.2-5.5-27.2c-1.7,7.8-3.1,17.8-6.3,27.3c-3.5,10.5-8.4,11.9-18.6,7.3c-8.8-4-10.5-8.4-5.1-17.7
			c4.4-7.5,4.7-14.7,3.1-23c-1-5.3,1.1-11.2,2.1-16.8c0.6-3.4,2.5-6.9,2.1-10.1c-0.2-2.2-3.4-4.2-5.2-6.2c-1.4,2.2-3.4,4.3-4.1,6.8
			c-1.7,5.5-2.5,11.4-4.4,16.9c-1.6,4.3-3.9,8.5-6.7,12.2c-2.5,3.4-6.6,8.9-8.8,8.3c0,0-9.1-4.2-7.2-8.9 M360.3,413.7l0.6-14.2
			c3.6,8.8,5,19.6,5,19.6c-0.3,2.6,0.4,6.8,2.2,8.1c9.1,6.7,9.4,16.7,0,22.8c0,0-7.1,5.4-5.5,8.7h-7.2c-3.9-3.9,11.1-14.7,11.1-14.7
			c3.9-1.9,6.1-8.4,0.6-10.8c-7.6-3.4-8.3-8.1-6.7-15l-0.1-10 M372.5,392.3c4,0,7.8,2.6,9.9,3.3c4.2-7.4,7.3-12.9,10.5-18.5
			c0.6,0.3,1.1,0.7,1.7,1c0,10,0,20,0,29.9c-3.6-3.2-6.4-6.9-10.1-8.7c-4.9-2.3-10.6-2.9-15.7-4.7l-8.4-3.4v-3.8
			C360.3,387.7,371.3,392.3,372.5,392.3z M325.8,422c1.3,3.7,5.4,8.3,9,9.1c6.1,1.4,11-2.7,12.2-9v-2.4h-21.2V422z M360.8,218
			c4,10.8,9.1,21.3,11.9,32.4c3.3,13.4,1.3,27-11.4,34.9L360.8,218z M177.1,186.4c6.9,0,6.8,2.3,6.8,2.3c2.4,6.5,3.5,11.1,0.9,17.1
			c-1,2.4-0.8,5.4-0.9,6.1c5.4-4.3,10.5-9.5,16.5-12.7c10.9-5.7,14-12.7,8.8-24c-1.5-3.2-4.2-6.3-4.5-9.6c0,0-1.3-1.8,4.6-12.9h50.2
			c-0.8,4.6,3.1,6.8,3.1,6.8s8.1,1.6,10.5-6.8h24.5c1.6,6,1.2,8.7,1.2,8.7c0,5.8-2.9,11.1-9.3,11c-10.1-0.1-15.6,3.8-20.7,13
			c0,0-5.5,27.9,8.2,36.5l4.5-6.6c-3.6-2.5-5.6-23.9-5.6-23.9c-0.4-3.7,3.7-7.9,5.8-11.9c3.9,2.1,9.4,2.8,11.3,6.4
			c0,0,11.3,11.6,13.9,7.7c2.6-3.8,6.8-6,8.8-7c11.2-5.9,14.8-11.8,12.6-24.6c-0.5-3.2-0.9-9.6-0.9-9.6l39.6,0.3
			c17,2.6-0.6,27.7-0.6,27.7c-1.1,1.8-2.2,3.6-3.1,5.4c-4.7,9.9-0.5,21.5,11.7,27.8c0-4.9,0.2-8.8-0.1-12.6
			c-0.2-2.3-1.3-4.6-1.6-6.9c-0.7-6.1,1.6-11.7,7.8-11.7c3.2,0,7.9,4.6,9.5,8.2c1.9,4.4,1.2,9.9,1.6,14.9c0.6,8.6,1.1,17.1,1.9,25.7
			c0.3,3.6,1.1,7.2,1.6,10.8c-7.4-7.3-8.2-16.3-8.3-25.4c-0.1-8-0.2-16.1-0.9-24c-0.2-1.9-3.1-3.5-4.7-5.3c-1.3,2.3-3.5,4.6-3.7,7
			s2.6,5.3,2.1,7.5c-1.3,5.7-3.7,11.1-5.6,16.6c-3.9-2.5-7.8-4.9-11.6-7.4c-1-0.7-1.8-1.9-2.6-2.9v-11.9c0,0,0.1-4.5-6-4.5
			 M174.7,177.6c-3.7,0-6.2-6.2-6.2-6.2c-4.5-5.6-3.4-11.3-3.4-11.3l-48.6-6.7 M107.1,333.5c0.3-4.2-0.2-8.7,1.1-12.7
			c2.2-6.7,6.9-12.9,7.9-19.7c1.1-7.2,1.1-15.5-1.7-22c-3.8-9.1-11.9-9.1-17.5-1.7c13.6,3.3,16.2,8.2,11.9,22.4
			c-2.2,7.1-5.6,13.9-6.5,21.1C101.8,324.8,105.4,329.2,107.1,333.5c-1.2,11.3-2.4,22.5-3.6,33.8c0.9,0.1,1.8,0.1,2.7,0.2
			c1.3-5.7,2.9-11.3,3.8-17c0.5-3.1,0.1-6.4-0.4-9.6C109.2,338.3,108,335.9,107.1,333.5z M82.6,195.1c3.8,3.6,6.9,8,10.3,12
			c1.1-0.4,2.3-0.9,3.4-1.3c0.2-4.2,0.5-8.4,0.7-12.7c0.3-7.9,0.4-15.7,1-23.6c0.3-3.8,1.8-7.5,2.1-11.3L82.6,195.1z M76.2,298.2
			c2.2,2.2,2.6,6.3,3.7,9.7c0.9,2.8,1.6,5.7,2.4,8.6c1,0,2,0,3,0c0.8-3.5,2-6.9,2.3-10.4c0.5-5.6,0.7-11.3,0.2-16.9
			c-0.2-3.1-1.2-7-3.4-8.8c-5.8-4.9-9.3-9.9-5.3-17.4c-11.4-4.4-11.8-5.6-5.9-16.3c6-11,5.6-15.4-2.8-24.6l-16.8-11.2
			c3.6,6.4,7,13.2,8.6,20.3c0.8,3.5-2.2,11-4.5,11.5c-7.6,1.7-9.3,7.5-12.4,12.6c-10.5,17.6-13.7,35.5-5.3,55.3
			c2.5,5.9,1.1,13.3,1.7,20c0.2,2.2,0.2,4.6,1.3,6.4c4.2,6.8,8.8,13.4,14.2,21.5c0,0-32.2,17.8-39.1,5.6 M194.8,290.8
			c0,8.8,15.5,6.7,15.5,6.7c3.7-0.2,7.4,0,13.4,0c-16.6-15.2-1.1-29.9-2.5-44.5c-0.2-1.8,2.9-4.3,4.9-6c4.1-3.4,8.6-6.4,12.8-9.7
			c9.1-7.3,13.8-16.2,10.4-28.2c-1-3.7-2.3-7.6-2.1-11.3c0.2-3.8,2.1-7.5,3.4-11.8c-2.9-8-6.2-17.2-9.7-26.7
			c-15.5,12.5-15.5,12.5-32.7,1.4c1.4,3.4,2.1,5.9,3.3,8c9.9,17.6,6.4,28-11.9,36c-8.3,3.6-10.2,9.3-5.9,18.1
			c6,12.6,0.9,30-10.2,38.8 M105.5,159.6l11-6.2l-10.8,1.4c-0.1,4.8,3.8,16.7,3.8,16.7c-7.2,5.6-9.2,12.5-7.6,21.3
			c1.4,7.7-0.2,14.2-7.5,19.3c-5.6,3.9-7.7,10.6-5.8,18.1c8-6.3,11-5.3,12.7,3.8c0.6,3.3,1.2,6.5,1.8,9.8c0.8,0,1.7-0.1,2.5-0.1
			c6.3-12.2,7.9-25.3,6.8-39c-0.5-5.8-0.9-12,0.6-17.5c0.7-2.9,5.5-4.7,8.5-7c1.4,3.3,4.6,7.2,3.8,9.8c-2.9,8.8,0.1,15.4,4.5,22.5
			c1.7,2.8,2.7,8.3,1.2,10.4c-6.3,8.5-0.8,11.9,6.4,16.8l4.2,71.7c-0.1-0.3-1-0.4-3.5-1.4c-1,5.2-2.2,10.1-2.8,15
			c-0.7,6.2-1.1,12.5-1.3,18.8c-0.1,2,0.3,4.9,1.6,5.9c6.7,5.2,7.7,11.6,4.9,19.1c-2.4,6.4-7.4,8.8-13.8,9.4
			c-8.2,0.8-11.4-4.5-12.8-10.5c-4.9,4.3-9,8.9-14,12.2c-8.9,5.9-14.9,2.6-15.3-8c-0.2-4.4,1.5-8.9,1.1-13.2
			c-0.3-2.7-2.6-5.6-4.9-7.4c-0.7-0.5-4.4,2.1-6.3,3.8c-2.1,1.9-3.7,4.3-5.7,6.7c9,5,11.4,12.3,9.7,21.5c-0.7,3.8-1,7.7-1.1,11.5
			c-0.1,4.8,1.6,7.5,7,5c4.2-1.9,7.7-2.2,10.4,2.9c1.7,3.3,4.7,6,7,8.9c0.6-0.7,1.1-1.4,1.7-2.1c3.4-1.3,7.8-4.4,9.9-3.3
			c2.9,1.5,4.7,6.1,5.8,9.8c2,6.6-0.3,12-5.6,16.6c-4.3,3.7-4.1,4-0.3,6c6.2-3.7,11.3-6.7,14.8-8.8c1-9.7,1.1-19.3,3.1-28.5
			c2.8-12.9,5.6-13.8,18-8.2c0.9-2.1,2.5-4.1,2.7-6.3l8.2-16.1c-1.2,2.1-3,4.1-3.6,6.4c-1.7,6.5-2.8,13.1-4.2,19.7
			c-0.3,1.4-0.8,2.9-0.7,4.2c0.6,7.6,1.1,15.3,2.2,22.9c1.4,9.8-4.2-0.1-4.8-9.8c-0.5-7.7-2.1-14.9-10-20
			c-4.9,10.7-7.6,20.1-4.1,30.9c3.6,11.1,1.4,15.3-8.2,21.5c-1.8,1.1-3.4,3.2-4,5.2l5.2,6.8H164c0,0,15.9-45.1,15.9-53.6l-0.7-5.7
			c0,0,0.3-12.5-3.6-25 M255.1,371.8c-2.2-4.8-4.5-9.5-6.6-14.4c-0.5-1.3-0.3-3-0.1-4.4c1.7-12.8-1.3-23.6-10.1-33.6
			c-6.7-7.6-9.1-17.5-5.7-27.6c3.3-9.7-1.6-17.3-4.5-26.2c-8.5,9-10,17.5-4.2,24.9c5.2,6.6,4,10.7-2.6,15.2
			c-10.2,7-10.7,11.1-2.6,20.8c5.2,6.2,7.3,12.9,2.5,19.5c-7.5,10.1-9.4,19.6-0.6,29.7c0.2,0.2,0.4,0.3,1.8,1.4c0-4-0.2-7,0-9.9
			c0.5-5.8,3-10.9,9.4-11c6.6-0.1,10.5,4.8,10.7,10.9c0.2,4.5-2,9.1-3,13.7c-0.8,3.7-2.8,7.8-1.8,11c3.3,10.8,1.9,20.3-3.8,29.9
			c-1,1.7,0.7,6.6,2.7,8.2c5.5,4.4,10.9,3.5,12.8-3.8c2.2-8.3,2.8-17,5.1-25.2c1.3-4.6,3.4-10.4,7-12.5
			C261.3,388.3,271,381.1,255.1,371.8z M262.9,239.7c-2.4-4.4-2.4-11.5-0.7-16.4c3.9-10.9-3.1-19.1-5.1-28.5c-0.2-1-3.4-1.4-6.7-2.6
			c0.9,5.4,1.1,9.5,2.3,13.3c4.5,15.5-0.3,27.3-13.5,36.2c-3.7,2.5-7.4,5.1-10.6,8.1c-2.3,2.2-3.9,5.2-6.4,8.8
			c15.9,1.4,11.6,14.9,17,23c0,0,17.6-3.4,21.6-20.2C264.8,244.4,262.9,239.7,262.9,239.7z M78.7,345.2c11.9,4.5,12,12.1,10.1,22.1
			c-0.6,3.4,1.2,7.3,1.9,10.9c3.6-1.1,7.3-2.2,10.9-3.3c-1.1-0.6-2.1-1.2-3.2-1.9c0.6-6.9,1.3-13.8,1.7-20.7
			c0.3-5.4,2.2-11.8,0.1-16.1c-4.6-9.3-3.9-17.7-0.5-26.6c2-5.3,4.7-10.5,5.4-15.9c0.4-3.2-2.5-6.8-3.9-10.2c-2.9,2.7-7.5,5-8.3,8.3
			c-1.5,5.9,0,12.5-1.2,18.6c-0.8,3.9-3.3,8.6-6.5,10.5L78.7,345.2z M208.1,359.7c3.2-5.3,6.6-10.7,8.4-16.6
			c1.1-3.5,0.9-8.9-1.1-11.8c-9.5-13.7-9.9-15.5-1.5-31.1c0,0-11.5,3.1-16-1.4 M342.9,445.4c-2,4.6-5,8.7-7.2,13.3h-23l3.1-24.4
			c-0.3-4,1.8-8.2,2.8-12.2c0.9,0,1.8,0,2.6,0c2.6,10.4,8.4,15.9,20.1,12.7L342.9,445.4z M281.6,443.5c-0.4-2.6-0.7-5.3-0.5-8
			c0.7-9.3-1.4-17.2-8.1-24.3c-3.3-3.5-4.1-9.4-6.1-14.2c-0.7-0.2-1.4-0.3-2.2-0.5c0.7,7.3,1.5,14.6,2.1,21.9
			c0.8,9.3,0.3,18.8,2.3,27.9C275.3,474.8,281.6,443.5,281.6,443.5z M72.4,216.4c4.8,6.9,8.6,14.5,11.1,18.9
			c1.1-5.5,2.9-14.4,4.7-23.3c0.2-0.8,0.1-1.9-0.4-2.5L72.4,216.4z M345,157.7c3,11,5.9,21.5,9.3,34c4.8-8.1,8.1-13.3,11-18.7
			c2.2-4.2,3.2-8.5-3.3-10.2C357.1,161.5,352.4,159.9,345,157.7z M89.1,424.4c0.9,0.7,1.8,1.3,2.7,2c2.7-2.9,5.9-5.4,7.9-8.7
			c0.6-1-2.4-4-5-8.1C92.2,416.2,90.7,420.3,89.1,424.4z"/>
		<path class="st6" d="M395.1,321.2c0,17.3,0,33.2,0,49.5C386.9,361.4,386.7,335.7,395.1,321.2z"/>
	</g>
	<path class="st6" d="M371.8,377.9"/>
	<g>
		<path class="st6" d="M764.3,230.2c7.3-3.2,6.1,14.1,0.3,22.3c-4,5.7-0.7,12.4,5.9,14.3c2,0,3.1,5.1,3.1,5.1s0,44.6,0,51.2
			s-2,10.1-2,10.1c-2.2,4.6-5.5,6.9-9.7,4.3c-3-1.8-6.7-5.7-6.7-8.6c0-7.5,0.7-15.4,3.1-22.5c4.5-13,5.3-25.5-0.1-38.2
			c-2.6-6-5.7-11.7-8.8-17.5c0,0-4-32.5,6-32.5S747.2,237.7,764.3,230.2z M730.1,364.1c6.8-0.9,10.4,1.8,11.5,7.6
			c0.9,4.6,1.7,9.3,1.7,14v12.9c0,0-9.1,2.6-10.1,1.6C732.1,399.1,730.1,364.1,730.1,364.1z M608.2,369c-11.8,7.1-7.5,9.9-7.5,9.9
			c1.2-1.5,3.9-1.7,5.9-2.6c0.5,2,2.1,4.4,1.5,6c-4,10.8-2.2,21.1,1.6,31.3c5.6,15.1,4,29.9-2,44.3l-16.7,0.5c0,0,2.5-8.4-0.8-11.6
			c-1.6-1.6-3-6.1-5-6.3c-2.6-0.3-6.1,1.6-8.2,3.7c-2,1.9-2.4,5.4-4.1,7.8l-3.2,6.5l-36.5-0.3c0,0-9.9-22.7-6.9-30.5
			c0.1-9.6,3.8-19.2,5.5-27.2c1.7,7.8,3.1,17.8,6.3,27.3c3.5,10.5,8.4,11.9,18.6,7.3c8.8-4,10.5-8.4,5.1-17.7
			c-4.4-7.5-4.7-14.7-3.1-23c1-5.3-1.1-11.2-2.1-16.8c-0.6-3.4-2.5-6.9-2.1-10.1c0.2-2.2,3.4-4.2,5.2-6.2c1.4,2.2,3.4,4.3,4.1,6.8
			c1.7,5.5,2.5,11.4,4.4,16.9c1.6,4.3,3.9,8.5,6.7,12.2c2.5,3.4,6.6,8.9,8.8,8.3c0,0,9.1-4.2,7.2-8.9l3-48L608.2,369z M431.4,413.6
			l-0.6-14.2c-3.6,8.8-5,19.6-5,19.6c0.3,2.6-0.4,6.8-2.2,8.1c-9.1,6.7-9.4,16.7,0,22.8c0,0,7.1,5.4,5.5,8.7h7.2
			c3.9-3.9-11.1-14.7-11.1-14.7c-3.9-1.9-6.1-8.4-0.6-10.8c7.6-3.4,8.3-8.1,6.7-15l0.1-10 M419.2,392.2c-4,0-7.8,2.6-9.9,3.3
			c-4.2-7.4-7.3-12.9-10.5-18.5c-0.6,0.3-1.1,0.7-1.7,1c0,10,0,20,0,29.9c3.6-3.2,6.4-6.9,10.1-8.7c4.9-2.3,10.6-2.9,15.7-4.7
			l8.4-3.4v-3.8C431.4,387.5,420.3,392.2,419.2,392.2z M465.8,421.9c-1.3,3.7-5.4,8.3-9,9.1c-6.1,1.4-11-2.7-12.2-9v-2.4h21.2V421.9
			z M430.8,217.9c-4,10.8-9.1,21.3-11.9,32.4c-3.3,13.4-1.3,27,11.4,34.9L430.8,217.9z M623.6,210.7l-15.7-2.6l-11,82.5
			c0,8.8-15.5,6.7-15.5,6.7c-3.7-0.2-7.4,0-13.4,0c16.6-15.2,1.1-29.9,2.5-44.5c0.2-1.8-2.9-4.3-4.9-6c-4.1-3.4-8.6-6.4-12.8-9.7
			c-9.1-7.3-13.8-16.2-10.4-28.2c1-3.7,2.3-7.6,2.1-11.3c-0.2-3.8-2.1-7.5-3.4-11.8c2.9-8,6.2-17.2,9.7-26.7
			c15.5,12.5,15.5,12.5,32.7,1.4c-1.4,3.4-2.1,5.9-3.3,8c-9.9,17.6-6.4,28,11.9,36c8.3,3.6,5.1-2.2-1-5.4c-10.9-5.7-14-12.7-8.8-24
			c1.5-3.2,4.2-6.3,4.5-9.6c0,0,1.3-1.8-4.6-12.9H532c0.8,4.6-3.1,6.8-3.1,6.8s-8.1,1.6-10.5-6.8H494c-1.6,6-1.2,8.7-1.2,8.7
			c0,5.8,2.9,11.1,9.3,11c10.1-0.1,15.6,3.8,20.7,13c0,0,5.5,27.9-8.2,36.5l-4.5-6.6c3.6-2.5,5.6-23.9,5.6-23.9
			c0.4-3.7-3.7-7.9-5.8-11.9c-3.9,2.1-9.4,2.8-11.3,6.4c0,0-11.3,11.6-13.9,7.7c-2.6-3.8-6.8-6-8.8-7c-11.2-5.9-14.8-11.8-12.6-24.6
			c0.5-3.2,0.9-9.6,0.9-9.6l-39.6,0.3c-17,2.6,0.6,27.7,0.6,27.7c1.1,1.8,2.2,3.6,3.1,5.4c4.7,9.9,0.5,21.5-11.7,27.8
			c0-4.9-0.2-8.8,0.1-12.6c0.2-2.3,1.3-4.6,1.6-6.9c0.7-6.1-1.6-11.7-7.8-11.7c-3.2,0-7.9,4.6-9.5,8.2c-1.9,4.4-1.2,9.9-1.6,14.9
			c-0.6,8.6-1.1,17.1-1.9,25.7c-0.3,3.6-1.1,7.2-1.6,10.8c7.4-7.3,8.2-16.3,8.3-25.4c0.1-8,0.2-16.1,0.9-24c0.2-1.9,3.1-3.5,4.7-5.3
			c1.3,2.3,3.5,4.6,3.7,7s-2.6,5.3-2.1,7.5c1.3,5.7,3.7,11.1,5.6,16.6c3.9-2.5,7.8-4.9,11.6-7.4c1-0.7,1.8-1.9,2.6-2.9v-11.9
			c0,0-0.1-4.5,6-4.5 M684.5,333.3c-0.3-4.2,0.2-8.7-1.1-12.7c-2.2-6.7-6.9-12.9-7.9-19.7c-1.1-7.2-1.1-15.5,1.7-22
			c3.8-9.1,11.9-9.1,17.5-1.7c-13.6,3.3-16.2,8.2-11.9,22.4c2.2,7.1,5.6,13.9,6.5,21.1C689.8,324.6,686.2,329.1,684.5,333.3
			c1.2,11.3,2.4,22.5,3.6,33.8c-0.9,0.1-1.8,0.1-2.7,0.2c-1.3-5.7-2.9-11.3-3.8-17c-0.5-3.1-0.1-6.4,0.4-9.6
			C682.5,338.2,683.7,335.8,684.5,333.3z M709.1,194.9c-3.8,3.6-6.9,8-10.3,12c-1.1-0.4-2.3-0.9-3.4-1.3c-0.2-4.2-0.5-8.4-0.7-12.7
			c-0.3-7.9-0.4-15.7-1-23.6c-0.3-3.8-1.8-7.5-2.1-11.3L709.1,194.9z M715.4,298c-2.2,2.2-2.6,6.3-3.7,9.7c-0.9,2.8-1.6,5.7-2.4,8.6
			c-1,0-2,0-3,0c-0.8-3.5-2-6.9-2.3-10.4c-0.5-5.6-0.7-11.3-0.2-16.9c0.2-3.1,1.2-7,3.4-8.8c5.8-4.9,9.3-9.9,5.3-17.4
			c11.4-4.4,11.8-5.6,5.9-16.3c-6-11-5.6-15.4,2.8-24.6l16.8-11.2c-3.6,6.4-7,13.2-8.6,20.3c-0.8,3.5,2.2,11,4.5,11.5
			c7.6,1.7,9.3,7.5,12.4,12.6c10.5,17.6,13.7,35.5,5.3,55.3c-2.5,5.9-1.1,13.3-1.7,20c-0.2,2.2-0.2,4.6-1.3,6.4
			c-4.2,6.8-8.8,13.4-14.2,21.5c0,0,32.2,17.8,39.1,5.6 M686.1,159.5l-11-6.2l10.8,1.4c0.1,4.8-3.8,16.7-3.8,16.7
			c7.2,5.6,9.2,12.5,7.6,21.3c-1.4,7.7,0.2,14.2,7.5,19.3c5.6,3.9,7.7,10.6,5.8,18.1c-8-6.3-11-5.3-12.7,3.8
			c-0.6,3.3-1.2,6.5-1.8,9.8c-0.8,0-1.7-0.1-2.5-0.1c-6.3-12.2-7.9-25.3-6.8-39c0.5-5.8,0.9-12-0.6-17.5c-0.7-2.9-5.5-4.7-8.5-7
			c-1.4,3.3-4.6,7.2-3.8,9.8c2.9,8.8-0.1,15.4-4.5,22.5c-1.7,2.8-2.7,8.3-1.2,10.4c6.3,8.5,0.8,11.9-6.4,16.8l-4.2,71.7
			c0.1-0.3,1-0.4,3.5-1.4c1,5.2,2.2,10.1,2.8,15c0.7,6.2,1.1,12.5,1.3,18.8c0.1,2-0.3,4.9-1.6,5.9c-6.7,5.2-7.7,11.6-4.9,19.1
			c2.4,6.4,7.4,8.8,13.8,9.4c8.2,0.8,11.4-4.5,12.8-10.5c4.9,4.3,9,8.9,14,12.2c8.9,5.9,14.9,2.6,15.3-8c0.2-4.4-1.5-8.9-1.1-13.2
			c0.3-2.7,2.6-5.6,4.9-7.4c0.7-0.5,4.4,2.1,6.3,3.8c2.1,1.9,3.7,4.3,5.7,6.7c-9,5-11.4,12.3-9.7,21.5c0.7,3.8,1,7.7,1.1,11.5
			c0.1,4.8-1.6,7.5-7,5c-4.2-1.9-7.7-2.2-10.4,2.9c-1.7,3.3-4.7,6-7,8.9c-0.6-0.7-1.1-1.4-1.7-2.1c-3.4-1.3-7.8-4.4-9.9-3.3
			c-2.9,1.5-4.7,6.1-5.8,9.8c-2,6.6,0.3,12,5.6,16.6c4.3,3.7,4.1,4,0.3,6c-6.2-3.7-11.3-6.7-14.8-8.8c-1-9.7-1.1-19.3-3.1-28.5
			c-2.8-12.9-5.6-13.8-18-8.2c-0.9-2.1-2.5-4.1-2.7-6.3c0,0-5.1-11.9-4.5-9.6c1.7,6.5,2.8,13.1,4.2,19.7c0.3,1.4,0.8,2.9,0.7,4.2
			c-0.6,7.6-1.1,15.3-2.2,22.9c-1.4,9.8,4.2-0.1,4.8-9.8c0.5-7.7,2.1-14.9,10-20c4.9,10.7,7.6,20.1,4.1,30.9
			c-3.6,11.1-1.4,15.3,8.2,21.5c1.8,1.1,3.4,3.2,4,5.2l-5.2,6.8h-36.4c0,0-15.9-45.1-15.9-53.6l0.7-5.7c0,0-0.3-12.5,3.6-25
			l16.9-3.7l-34.8-39.9l-14.6,28.8c-3.2-5.3-6.6-10.7-8.4-16.6c-1.1-3.5-0.9-8.9,1.1-11.8c9.5-13.7,9.9-15.5,1.5-31.1
			c0,0,11.5,3.1,16-1.4l23.1-9.1l-3.8,36l24.5-19.5l-7.5-73.4l-10.7-35.4l14.7-14.7l-17.2-5c3.7,0,6.2-6.2,6.2-6.2
			c4.5-5.6,3.4-11.3,3.4-11.3l48.6-6.7 M536.5,371.7c2.2-4.8,4.5-9.5,6.6-14.4c0.5-1.3,0.3-3,0.1-4.4c-1.7-12.8,1.3-23.6,10.1-33.6
			c6.7-7.6,9.1-17.5,5.7-27.6c-3.3-9.7,1.6-17.3,4.5-26.2c8.5,9,10,17.5,4.2,24.9c-5.2,6.6-4,10.7,2.6,15.2
			c10.2,7,10.7,11.1,2.6,20.8c-5.2,6.2-7.3,12.9-2.5,19.5c7.5,10.1,9.4,19.6,0.6,29.7c-0.2,0.2-0.4,0.3-1.8,1.4c0-4,0.2-7,0-9.9
			c-0.5-5.8-3-10.9-9.4-11c-6.6-0.1-10.5,4.8-10.7,10.9c-0.2,4.5,2,9.1,3,13.7c0.8,3.7,2.8,7.8,1.8,11c-3.3,10.8-1.9,20.3,3.8,29.9
			c1,1.7-0.7,6.6-2.7,8.2c-5.5,4.4-10.9,3.5-12.8-3.8c-2.2-8.3-2.8-17-5.1-25.2c-1.3-4.6-3.4-10.4-7-12.5
			C530.3,388.1,520.6,380.9,536.5,371.7z M528.7,239.5c2.4-4.4,2.4-11.5,0.7-16.4c-3.9-10.9,3.1-19.1,5.1-28.5
			c0.2-1,3.4-1.4,6.7-2.6c-0.9,5.4-1.1,9.5-2.3,13.3c-4.5,15.5,0.3,27.3,13.5,36.2c3.7,2.5,7.4,5.1,10.6,8.1
			c2.3,2.2,3.9,5.2,6.4,8.8c-15.9,1.4-11.6,14.9-17,23c0,0-17.6-3.4-21.6-20.2C526.8,244.3,528.7,239.5,528.7,239.5z M712.9,345.1
			c-11.9,4.5-12,12.1-10.1,22.1c0.6,3.4-1.2,7.3-1.9,10.9c-3.6-1.1-7.3-2.2-10.9-3.3c1.1-0.6,2.1-1.2,3.2-1.9
			c-0.6-6.9-1.3-13.8-1.7-20.7c-0.3-5.4-2.2-11.8-0.1-16.1c4.6-9.3,3.9-17.7,0.5-26.6c-2-5.3-4.7-10.5-5.4-15.9
			c-0.4-3.2,2.5-6.8,3.9-10.2c2.9,2.7,7.5,5,8.3,8.3c1.5,5.9,0,12.5,1.2,18.6c0.8,3.9,3.3,8.6,6.5,10.5L712.9,345.1z M448.7,445.3
			c2,4.6,5,8.7,7.2,13.3h23l-3.1-24.4c0.3-4-1.8-8.2-2.8-12.2c-0.9,0-1.8,0-2.6,0c-2.6,10.4-8.4,15.9-20.1,12.7L448.7,445.3z
			 M510,443.4c0.4-2.6,0.7-5.3,0.5-8c-0.7-9.3,1.4-17.2,8.1-24.3c3.3-3.5,4.1-9.4,6.1-14.2c0.7-0.2,1.4-0.3,2.2-0.5
			c-0.7,7.3-1.5,14.6-2.1,21.9c-0.8,9.3-0.3,18.8-2.3,27.9C516.4,474.7,510,443.4,510,443.4z M719.2,216.3
			c-4.8,6.9-8.6,14.5-11.1,18.9c-1.1-5.5-2.9-14.4-4.7-23.3c-0.2-0.8-0.1-1.9,0.4-2.5L719.2,216.3z M446.7,157.5
			c-3,11-5.9,21.5-9.3,34c-4.8-8.1-8.1-13.3-11-18.7c-2.2-4.2-3.2-8.5,3.3-10.2C434.5,161.3,439.3,159.8,446.7,157.5z M702.5,424.3
			c-0.9,0.7-1.8,1.3-2.7,2c-2.7-2.9-5.9-5.4-7.9-8.7c-0.6-1,2.4-4,5-8.1C699.4,416.1,701,420.2,702.5,424.3z"/>
		<path class="st6" d="M396.5,321.1c0,17.3,0,33.2,0,49.5C404.8,361.3,404.9,335.5,396.5,321.1z"/>
	</g>
	<path class="st6" d="M419.8,377.8"/>
	<path class="st6" d="M493.2,431.2l-41.1-27.7c0,0-18.1-11.7-15.1-36.2c3.1-24.4,36-34.5,36-34.5s23.4,15,5.9,40.6
		s13.9,7.7,8.7,12.9c-5.2,5.2,23.5-30.7,17.6,10.2s-12,52.6-12,52.6S489.6,453.1,493.2,431.2z"/>
	<path class="st6" d="M506,336.6c0,0-3.3,33.2,9.3,25.8c12.6-7.3,26.6-36.9,26.6-36.9s9.6-17.3-9.1-36c-18.7-18.7-26.7,2.8-26.7,2.8
		L506,336.6L506,336.6z"/>
	<path class="st6" d="M493.2,316.8c0,0-27.1,19.4-45,8.8c-17.9-10.7,0.5-44.2,0.5-44.2s-9.7-15.6-2.1-23.2
		c7.7-7.7,46.5,35.3,46.5,35.3S500.6,316.8,493.2,316.8z"/>
	<path class="st6" d="M471.3,254.5h31.5l-6.3-32.2c0,0-16.1-7.5-28.7-7.5s-9.5,26.8-9.5,26.8L471.3,254.5z"/>
	<path class="st6" d="M424.1,336.6c10.9-10.9,4.9-30.9-4.3-51.4c-9.2-20.5-10.9-13.6-10.9-6.3s0,40.8,0,40.8l10.9,31.8
		C419.8,351.4,419.3,341.4,424.1,336.6z"/>
</g>
<g id="Layer_5">
	<g>
		<path class="st6" d="M185.7,419.1c4.4-8.4,2.9-17.3,2.1-26.1c-0.3-3.5,0-6.8,2.2-9.9c2.3-3.2,1.9-6.8-0.5-9.6
			c-2.9-3.3-6.4-5.6-10.9-4.5c-3.1,0.8-3.4,3.6-2.8,6.4c0.8,4.2,2,8.3,2.8,12.4c3.1,18.1-3.3,32.4-17.6,43.3
			c-1.5,1.2-3.1,2.3-4.8,3.2c9.5-18.8,6.9-31.3,5.8-40.5c-2.7,2-5.4,4-8.1,6.1c6.9-11.1,6.7-23,5.5-35.1c-2.6-26-9.5-51.1-14.7-76.6
			c-3.4-16.9-6.9-33.9-7.5-51.2c-0.4-13,1.2-25.8,6.6-37.8c4.8-10.6,12-18.7,24.1-21c7.9-1.5,15.3,0.1,22.8,4.6
			c-2.7,0.2-4.8,0.1-6.7,0.6c-8.6,1.9-14.4,9.6-15.6,19.7c-1.5,13.5,1.9,26.2,6.5,38.5c6.2,16.6,13.4,32.8,19.9,49.2
			c8.9,22.4,14.6,45.6,13.8,69.9c-0.7,21.1-7,40.4-21.1,56.6C187,417.9,186.3,418.5,185.7,419.1z M204,374.5
			c0.5-7.2,1-13.8,1.6-20.8c-2.7,0.3-4.6,0.8-6.4,0.7c-3.3-0.2-6.7-0.5-9.9-1.1c-1-0.2-1.7-1.4-2.6-2.2c1-0.6,1.9-1.6,3-1.7
			c2.7-0.3,5.4-0.3,8-0.2c2.3,0.1,4.6,0.4,7.4,0.7c-0.7-6-1.3-11.5-2.1-17.8c-6.1,8.6-14,9.9-22.7,9.3c-8.5-0.5-16.1-3.4-22.7-10
			c1.2,6.2,2.2,11.8,3.3,17.3c6.5,0,12.8-1.6,19.2,2.6c-6.4,3.6-12.2,2.4-18.2,1.6c0.6,8,1.2,15.8,1.9,23.9
			C174.6,356.6,185.9,355.8,204,374.5z M183.1,272c-3.9-0.7-7.1-1-10.1-1.8c-2.5-0.7-4.7-2-7.2-2.9c-6.5-2.2-12.8-1.6-18.8,1.9
			c-0.9,0.5-2,1.9-1.9,2.7c0.2,2.7,1,5.4,1.5,8.3c6.3-6.1,12.1-7.4,17.4-4.3c-1.8,1.4-3.7,2.8-5.6,4.2c3.7,1.8,6.9,3.4,10.1,5
			c-0.1,0.3-0.3,0.6-0.4,0.9c-1.4-0.1-2.9-0.2-4.3-0.2c-4.5-0.2-8.8,0.6-12.3,3.5c-1,0.8-2.3,2.4-2.2,3.5c0.7,4.8,1.9,9.5,3.2,15.1
			c3.1-7.5,8-11.6,15-12.8c8.6-1.4,16.7,0,24.4,4.2c0.7,0.4,1.5,0.7,2.8,1.3c-1.7-4.5-3.2-8.2-4.5-12c-0.7-2-1.6-2.7-3.9-2.5
			c-4.3,0.3-8.4-0.9-12.4-3.9c2.2-0.5,3.6-0.7,5-1.2C185.9,278.8,186.3,277.7,183.1,272z M171.3,242.6c-10.4,7.6-20.3,6.4-30.6-0.8
			c0.6,3.9,0.4,7.5,1.9,10.1c0.7,1.2,4.5,0.6,6.9,0.9c0.9,0.1,1.8,0.1,2.6,0.4c1.2,0.5,2.3,1.2,3.5,1.8c-0.1,0.5-0.1,1-0.2,1.5
			c-4.1,0.4-8.2,0.7-12.7,1.1c0.5,3.4,1.1,6.8,1.7,10.6c12.5-9.3,24.4-5.3,37,0.1c-0.8-2-1.3-3.2-1.6-4.5c-1.4-4.9-3.4-8.7-9.6-6.8
			c-1.3,0.4-2.9-0.1-4.3-0.5c-1.1-0.3-2.1-1.1-3.2-1.6c0.1-0.5,0.1-0.9,0.2-1.4c3.9-0.5,7.9-0.9,12-1.4
			C173.7,249.2,172.5,246,171.3,242.6z M176.7,317.4c-3,0.5-5.7,0.8-8.2,1.5c-3.4,0.9-6.7,2.5-7.3,6.5c-0.7,4.2,1.6,7.3,5,9.2
			c8.6,4.9,17.7,6,27,2.4c3.1-1.2,5.9-3.2,6.1-6.9c0.2-3.8-2.2-6.3-5.1-8.1c-1.6-1-3.4-1.9-5.2-2.3
			C184.8,318.7,180.6,318.1,176.7,317.4z M182.2,307.2c-2.2-0.2-3.2-0.4-4.1-0.4c-3.2,0-6-0.6-8-3.7c-0.9-1.5-3.4-1.9-5.1-2.8
			c-0.4,1.2-0.3,1.6-0.1,2c1.6,3.1,1.6,5.3-1.9,7.4c-4.2,2.5-5.7,7.7-4.4,11.9c6.2-5.4,12.5-7.5,20.9-6.3c4.6,0.6,9.2,1.8,13.7,2.9
			c2,0.5,3.4,0.6,3.1-2.1c-0.7-6.1-10.6-14.1-16.7-13.6C180.2,303.7,181,305.1,182.2,307.2z M159.5,230c-0.1,0.3-0.2,0.6-0.3,0.9
			c0.9,1,2.1,1.8,2.7,2.9c0.5,0.9,0.2,2.2,0.2,3.4c-1.1,0-2.6,0.5-3.3,0c-1.6-1.1-2.8-3-4.4-4.1c-2.5-1.8-5.1-3.7-7.9-4.7
			c-3.5-1.2-6.5,1.7-5.9,5.4c0.3,1.6,1,3.3,1.9,4.6c4.6,6.4,16.6,9,23.6,5.3c4.4-2.3,5-7.5,0.9-10.4
			C164.8,231.7,162,231.1,159.5,230z M158.1,214.5c-0.2,0.3-0.4,0.6-0.7,0.8c0.5,0.7,1.2,1.4,1.4,2.2c0.3,1.4,0.3,2.8,0.4,4.2
			c-1.3-0.4-2.7-0.6-3.8-1.3c-1.9-1.5-3.5-3.6-5.5-4.9c-2.1-1.4-4.6-2.2-6.8-0.2c-1.7,1.6-1.3,4.9,0.6,7.4
			c3.8,4.8,13.2,7.1,18.7,4.5c3.5-1.6,4.6-5.1,2-8C162.8,217.2,160.3,216,158.1,214.5z M164.6,202.2c-2.2,0-4.4,0-6.2,0
			c0.4,1.5,0.8,3,1.2,4.5c-1.7,0.3-3.4,1-5,0.8c-3.1-0.4-6.1-1.3-9.5-2.1c-0.6,2.1-1.2,4.1-1.9,6.5c7.9-1.4,14.8-0.4,21.4,3
			C164.6,210.4,164.6,206.4,164.6,202.2z M160.9,199.9c1.7-0.4,3.4-0.2,4.3-1c2-1.7,2.1-6.3,0.6-7.7c-1.9-1.7-4.8-1.4-7.2,0.9
			c-1,0.9-1.8,2-2.8,2.9c-0.4,0.4-1.2,0.4-1.8,0.5c-0.1-0.2-0.3-0.4-0.4-0.7c0.9-1.3,1.8-2.6,3-4.2c-1.2,0.4-2.3,0.4-2.8,0.9
			c-1.5,1.8-2.9,3.7-4,5.7c-0.3,0.6,0.8,2.4,1.6,2.9c2.5,1.3,4.5-0.3,6.3-1.7c1.3-1.1,2.6-2.2,4-3.3c0.3,0.2,0.5,0.4,0.8,0.6
			C162.1,196.7,161.7,197.8,160.9,199.9z"/>
		<path class="st6" d="M179.1,325.2c3.4,0.3,7,0.5,10.5,1.1c1.1,0.2,2,1.4,3.1,2.2c-1,0.8-2,2.2-2.9,2.2c-6.6-0.1-13.1-0.4-19.7-0.8
			c-0.9-0.1-1.7-1.4-2.5-2.2c0.9-0.6,1.7-1.5,2.7-1.7C173.1,325.6,176,325.5,179.1,325.2z"/>
		<path class="st6" d="M153.3,238.8c-2.1-0.8-4.4-1.4-6.3-2.5c-0.8-0.5-1.1-2-1.6-3.1c1.2,0.1,2.7-0.3,3.6,0.2
			c1.8,1.2,3.3,2.9,4.9,4.4C153.7,238.1,153.5,238.5,153.3,238.8z"/>
		<path class="st6" d="M146,218.1c3.2-0.9,4.4,2.1,6.4,3.6c-0.2,0.4-0.4,0.8-0.5,1.1c-2.2-1.1-4.4-2.1-6.6-3.1
			C145.5,219.2,145.8,218.6,146,218.1z"/>
	</g>
</g>
</svg>
